<svg xmlns="http://www.w3.org/2000/svg" xmlns:xlink="http://www.w3.org/1999/xlink" width="1024" zoomAndPan="magnify" viewBox="0 0 768 767.999994" height="1024" preserveAspectRatio="xMidYMid meet" version="1.0"><defs><g/><clipPath id="02232a8033"><path d="M 4 0.238281 L 154 0.238281 L 154 189 L 4 189 Z M 4 0.238281 " clip-rule="nonzero"/></clipPath><clipPath id="30700ee71e"><rect x="0" width="633" y="0" height="252"/></clipPath></defs><g transform="matrix(1, 0, 0, 1, 76, 258)"><g clip-path="url(#30700ee71e)"><g clip-path="url(#02232a8033)"><g fill="#0a2f24" fill-opacity="1"><g transform="translate(1.027526, 188.072749)"><g><path d="M 44.203125 0 L 3.71875 0 C 7.550781 -12.625 11.140625 -24.414062 14.484375 -35.375 C 17.828125 -46.332031 21.015625 -56.820312 24.046875 -66.84375 C 27.078125 -76.875 30.109375 -86.90625 33.140625 -96.9375 C 36.179688 -106.96875 39.34375 -117.335938 42.625 -128.046875 C 45.90625 -138.753906 49.398438 -150.296875 53.109375 -162.671875 C 54.472656 -167.003906 56.207031 -171.054688 58.3125 -174.828125 C 60.414062 -178.609375 63.109375 -181.675781 66.390625 -184.03125 C 69.671875 -186.382812 73.539062 -187.5625 78 -187.5625 C 82.570312 -187.5625 86.46875 -186.382812 89.6875 -184.03125 C 92.90625 -181.675781 95.597656 -178.609375 97.765625 -174.828125 C 99.929688 -171.054688 101.632812 -167.003906 102.875 -162.671875 C 106.59375 -150.296875 110.09375 -138.753906 113.375 -128.046875 C 116.65625 -117.335938 119.8125 -106.96875 122.84375 -96.9375 C 125.875 -86.90625 128.9375 -76.875 132.03125 -66.84375 C 135.125 -56.820312 138.3125 -46.332031 141.59375 -35.375 C 144.875 -24.414062 148.4375 -12.625 152.28125 0 L 123.859375 0 C 120.023438 -12.875 116.46875 -24.789062 113.1875 -35.75 C 109.90625 -46.707031 106.78125 -57.257812 103.8125 -67.40625 L 41.78125 -67.40625 C 41.53125 -57.132812 41.46875 -47.414062 41.59375 -38.25 C 41.71875 -29.09375 42.023438 -21.140625 42.515625 -14.390625 C 43.015625 -7.640625 43.578125 -2.84375 44.203125 0 Z M 41.96875 -70.203125 L 102.875 -70.203125 C 100.03125 -79.972656 97.117188 -89.65625 94.140625 -99.25 C 91.171875 -108.851562 88.109375 -118.851562 84.953125 -129.25 C 81.796875 -139.644531 78.300781 -150.785156 74.46875 -162.671875 C 73.84375 -164.773438 72.972656 -166.445312 71.859375 -167.6875 C 70.753906 -168.925781 69.144531 -169.546875 67.03125 -169.546875 C 63.695312 -169.546875 60.726562 -167.625 58.125 -163.78125 C 55.519531 -159.945312 53.289062 -154.71875 51.4375 -148.09375 C 49.582031 -141.46875 48.003906 -133.914062 46.703125 -125.4375 C 45.398438 -116.957031 44.378906 -107.984375 43.640625 -98.515625 C 42.898438 -89.046875 42.34375 -79.609375 41.96875 -70.203125 Z M 41.96875 -70.203125 "/></g></g></g></g><g fill="#0a2f24" fill-opacity="1"><g transform="translate(173.542309, 188.072749)"><g><path d="M 0 -114.765625 C 4.582031 -115.378906 9.347656 -116.367188 14.296875 -117.734375 C 19.253906 -119.097656 23.988281 -120.707031 28.5 -122.5625 C 33.019531 -124.414062 36.890625 -126.273438 40.109375 -128.140625 L 40.109375 0 L 13.1875 0 L 13.1875 -101.765625 C 13.1875 -106.835938 12.132812 -110.117188 10.03125 -111.609375 C 7.925781 -113.097656 4.582031 -113.84375 0 -113.84375 Z M 9.84375 -150.234375 C 9.84375 -154.441406 11.359375 -158.03125 14.390625 -161 C 17.421875 -163.976562 21.039062 -165.46875 25.25 -165.46875 C 29.582031 -165.46875 33.234375 -163.976562 36.203125 -161 C 39.179688 -158.03125 40.671875 -154.441406 40.671875 -150.234375 C 40.671875 -146.023438 39.179688 -142.40625 36.203125 -139.375 C 33.234375 -136.34375 29.582031 -134.828125 25.25 -134.828125 C 21.039062 -134.828125 17.421875 -136.34375 14.390625 -139.375 C 11.359375 -142.40625 9.84375 -146.023438 9.84375 -150.234375 Z M 9.84375 -150.234375 "/></g></g></g><g fill="#0a2f24" fill-opacity="1"><g transform="translate(241.880562, 188.072749)"><g><path d="M 25.8125 -33.0625 C 23.332031 -41.351562 21.195312 -49.148438 19.40625 -56.453125 C 17.613281 -63.753906 15.941406 -70.960938 14.390625 -78.078125 C 12.847656 -85.203125 11.238281 -92.664062 9.5625 -100.46875 C 7.894531 -108.269531 5.945312 -116.875 3.71875 -126.28125 L 30.640625 -126.28125 C 33.117188 -115.875 35.285156 -106.460938 37.140625 -98.046875 C 38.992188 -89.628906 40.785156 -81.488281 42.515625 -73.625 C 44.253906 -65.769531 46.175781 -57.722656 48.28125 -49.484375 C 50.382812 -41.253906 52.984375 -32.125 56.078125 -22.09375 C 57.816406 -16.40625 59.582031 -12.257812 61.375 -9.65625 C 63.164062 -7.050781 64.992188 -5.75 66.859375 -5.75 C 69.828125 -5.75 72.671875 -7.632812 75.390625 -11.40625 C 78.117188 -15.1875 80.566406 -20.046875 82.734375 -25.984375 C 84.898438 -31.929688 86.785156 -38.3125 88.390625 -45.125 C 90.003906 -51.9375 91.242188 -58.46875 92.109375 -64.71875 C 92.972656 -70.96875 93.40625 -76.132812 93.40625 -80.21875 C 93.40625 -93.46875 91.332031 -103.710938 87.1875 -110.953125 C 83.039062 -118.203125 77.4375 -123.3125 70.375 -126.28125 L 92.84375 -139.28125 C 98.175781 -136.550781 102.328125 -132.523438 105.296875 -127.203125 C 108.265625 -121.878906 109.75 -115.566406 109.75 -108.265625 C 109.75 -104.179688 109.191406 -98.671875 108.078125 -91.734375 C 106.960938 -84.804688 105.351562 -77.191406 103.25 -68.890625 C 101.144531 -60.597656 98.578125 -52.300781 95.546875 -44 C 92.515625 -35.707031 89.078125 -28.09375 85.234375 -21.15625 C 81.398438 -14.226562 77.191406 -8.660156 72.609375 -4.453125 C 68.023438 -0.242188 63.132812 1.859375 57.9375 1.859375 C 52.363281 1.859375 47.78125 0.929688 44.1875 -0.921875 C 40.601562 -2.785156 37.726562 -5.328125 35.5625 -8.546875 C 33.394531 -11.765625 31.566406 -15.476562 30.078125 -19.6875 C 28.597656 -23.894531 27.175781 -28.351562 25.8125 -33.0625 Z M 25.8125 -33.0625 "/></g></g></g><g fill="#0a2f24" fill-opacity="1"><g transform="translate(371.870361, 188.072749)"><g><path d="M 61.65625 1.859375 C 52 1.859375 43.207031 -0.488281 35.28125 -5.1875 C 27.363281 -9.894531 21.050781 -17.046875 16.34375 -26.640625 C 11.632812 -36.242188 9.28125 -48.410156 9.28125 -63.140625 C 9.28125 -77.867188 11.570312 -90.03125 16.15625 -99.625 C 20.738281 -109.21875 26.957031 -116.367188 34.8125 -121.078125 C 42.675781 -125.785156 51.625 -128.140625 61.65625 -128.140625 C 71.3125 -128.140625 80.097656 -125.785156 88.015625 -121.078125 C 95.941406 -116.367188 102.285156 -109.21875 107.046875 -99.625 C 111.816406 -90.03125 114.203125 -77.867188 114.203125 -63.140625 C 114.203125 -48.410156 111.847656 -36.242188 107.140625 -26.640625 C 102.441406 -17.046875 96.128906 -9.894531 88.203125 -5.1875 C 80.285156 -0.488281 71.4375 1.859375 61.65625 1.859375 Z M 47.546875 -123.5 C 42.585938 -122.257812 38.710938 -118.421875 35.921875 -111.984375 C 33.140625 -105.546875 31.59375 -97.46875 31.28125 -87.75 C 30.976562 -78.03125 32.125 -67.597656 34.71875 -56.453125 C 37.320312 -45.429688 40.941406 -35.648438 45.578125 -27.109375 C 50.222656 -18.566406 55.238281 -12.097656 60.625 -7.703125 C 66.007812 -3.304688 71.179688 -1.726562 76.140625 -2.96875 C 81.210938 -4.207031 85.140625 -8.046875 87.921875 -14.484375 C 90.710938 -20.921875 92.257812 -29 92.5625 -38.71875 C 92.875 -48.4375 91.734375 -58.804688 89.140625 -69.828125 C 87.160156 -78.117188 84.617188 -85.726562 81.515625 -92.65625 C 78.421875 -99.59375 74.957031 -105.535156 71.125 -110.484375 C 67.289062 -115.441406 63.328125 -119.097656 59.234375 -121.453125 C 55.148438 -123.804688 51.253906 -124.488281 47.546875 -123.5 Z M 47.546875 -123.5 "/></g></g></g><g fill="#0a2f24" fill-opacity="1"><g transform="translate(511.888034, 188.072749)"><g><path d="M 0 -114.765625 C 4.582031 -115.378906 9.347656 -116.367188 14.296875 -117.734375 C 19.253906 -119.097656 23.988281 -120.707031 28.5 -122.5625 C 33.019531 -124.414062 36.890625 -126.273438 40.109375 -128.140625 L 40.109375 -88.203125 C 41.097656 -92.535156 42.613281 -97.023438 44.65625 -101.671875 C 46.695312 -106.316406 49.359375 -110.648438 52.640625 -114.671875 C 55.921875 -118.691406 59.851562 -121.941406 64.4375 -124.421875 C 69.019531 -126.898438 74.34375 -128.140625 80.40625 -128.140625 C 87.957031 -128.140625 94.269531 -126.59375 99.34375 -123.5 L 89.515625 -99.171875 C 86.296875 -100.773438 82.953125 -102.164062 79.484375 -103.34375 C 76.015625 -104.519531 72.175781 -105.109375 67.96875 -105.109375 C 63.132812 -105.109375 58.613281 -103.835938 54.40625 -101.296875 C 50.195312 -98.765625 46.757812 -95.113281 44.09375 -90.34375 C 41.4375 -85.570312 40.109375 -79.847656 40.109375 -73.171875 L 40.109375 0 L 13.1875 0 L 13.1875 -101.765625 C 13.1875 -106.835938 12.132812 -110.117188 10.03125 -111.609375 C 7.925781 -113.097656 4.582031 -113.84375 0 -113.84375 Z M 0 -114.765625 "/></g></g></g></g></g></svg>