<svg xmlns="http://www.w3.org/2000/svg" xmlns:xlink="http://www.w3.org/1999/xlink" width="512" zoomAndPan="magnify" viewBox="0 0 384 383.999986" height="512" preserveAspectRatio="xMidYMid meet" version="1.0"><defs><g/><clipPath id="019f5fa976"><path d="M 2 0.0390625 L 54 0.0390625 L 54 65 L 2 65 Z M 2 0.0390625 " clip-rule="nonzero"/></clipPath><clipPath id="07a8cc7f93"><rect x="0" width="217" y="0" height="86"/></clipPath></defs><g transform="matrix(1, 0, 0, 1, 86, 149)"><g clip-path="url(#07a8cc7f93)"><g clip-path="url(#019f5fa976)"><g fill="#0a2f24" fill-opacity="1"><g transform="translate(1.531962, 64.12316)"><g><path d="M 15.03125 0 L 1.265625 0 C 2.566406 -4.289062 3.785156 -8.300781 4.921875 -12.03125 C 6.066406 -15.757812 7.15625 -19.328125 8.1875 -22.734375 C 9.21875 -26.148438 10.25 -29.566406 11.28125 -32.984375 C 12.3125 -36.398438 13.382812 -39.925781 14.5 -43.5625 C 15.613281 -47.207031 16.804688 -51.140625 18.078125 -55.359375 C 18.535156 -56.828125 19.125 -58.203125 19.84375 -59.484375 C 20.5625 -60.773438 21.476562 -61.816406 22.59375 -62.609375 C 23.707031 -63.410156 25.019531 -63.8125 26.53125 -63.8125 C 28.09375 -63.8125 29.421875 -63.410156 30.515625 -62.609375 C 31.609375 -61.816406 32.523438 -60.773438 33.265625 -59.484375 C 34.003906 -58.203125 34.582031 -56.828125 35 -55.359375 C 36.269531 -51.140625 37.460938 -47.207031 38.578125 -43.5625 C 39.691406 -39.925781 40.765625 -36.398438 41.796875 -32.984375 C 42.828125 -29.566406 43.867188 -26.148438 44.921875 -22.734375 C 45.972656 -19.328125 47.054688 -15.757812 48.171875 -12.03125 C 49.296875 -8.300781 50.507812 -4.289062 51.8125 0 L 42.140625 0 C 40.835938 -4.382812 39.628906 -8.4375 38.515625 -12.15625 C 37.398438 -15.882812 36.335938 -19.476562 35.328125 -22.9375 L 14.21875 -22.9375 C 14.132812 -19.4375 14.113281 -16.128906 14.15625 -13.015625 C 14.195312 -9.898438 14.300781 -7.191406 14.46875 -4.890625 C 14.632812 -2.597656 14.820312 -0.96875 15.03125 0 Z M 14.28125 -23.890625 L 35 -23.890625 C 34.03125 -27.210938 33.039062 -30.503906 32.03125 -33.765625 C 31.019531 -37.035156 29.976562 -40.4375 28.90625 -43.96875 C 27.832031 -47.507812 26.644531 -51.304688 25.34375 -55.359375 C 25.125 -56.066406 24.828125 -56.628906 24.453125 -57.046875 C 24.078125 -57.472656 23.53125 -57.6875 22.8125 -57.6875 C 21.675781 -57.6875 20.664062 -57.03125 19.78125 -55.71875 C 18.894531 -54.414062 18.132812 -52.640625 17.5 -50.390625 C 16.875 -48.140625 16.335938 -45.570312 15.890625 -42.6875 C 15.453125 -39.800781 15.101562 -36.742188 14.84375 -33.515625 C 14.59375 -30.296875 14.40625 -27.085938 14.28125 -23.890625 Z M 14.28125 -23.890625 "/></g></g></g></g><g fill="#0a2f24" fill-opacity="1"><g transform="translate(60.238258, 64.12316)"><g><path d="M 0 -39.046875 C 1.5625 -39.253906 3.179688 -39.585938 4.859375 -40.046875 C 6.546875 -40.515625 8.15625 -41.066406 9.6875 -41.703125 C 11.226562 -42.335938 12.550781 -42.96875 13.65625 -43.59375 L 13.65625 0 L 4.484375 0 L 4.484375 -34.625 C 4.484375 -36.351562 4.125 -37.46875 3.40625 -37.96875 C 2.695312 -38.476562 1.5625 -38.734375 0 -38.734375 Z M 3.34375 -51.125 C 3.34375 -52.550781 3.859375 -53.769531 4.890625 -54.78125 C 5.921875 -55.789062 7.15625 -56.296875 8.59375 -56.296875 C 10.070312 -56.296875 11.316406 -55.789062 12.328125 -54.78125 C 13.335938 -53.769531 13.84375 -52.550781 13.84375 -51.125 C 13.84375 -49.6875 13.335938 -48.453125 12.328125 -47.421875 C 11.316406 -46.390625 10.070312 -45.875 8.59375 -45.875 C 7.15625 -45.875 5.921875 -46.390625 4.890625 -47.421875 C 3.859375 -48.453125 3.34375 -49.6875 3.34375 -51.125 Z M 3.34375 -51.125 "/></g></g></g><g fill="#0a2f24" fill-opacity="1"><g transform="translate(83.493573, 64.12316)"><g><path d="M 8.78125 -11.25 C 7.9375 -14.070312 7.207031 -16.722656 6.59375 -19.203125 C 5.988281 -21.691406 5.421875 -24.144531 4.890625 -26.5625 C 4.367188 -28.988281 3.820312 -31.53125 3.25 -34.1875 C 2.6875 -36.84375 2.023438 -39.769531 1.265625 -42.96875 L 10.421875 -42.96875 C 11.265625 -39.425781 12 -36.222656 12.625 -33.359375 C 13.257812 -30.492188 13.875 -27.722656 14.46875 -25.046875 C 15.0625 -22.378906 15.710938 -19.644531 16.421875 -16.84375 C 17.140625 -14.039062 18.023438 -10.929688 19.078125 -7.515625 C 19.671875 -5.578125 20.269531 -4.164062 20.875 -3.28125 C 21.488281 -2.394531 22.113281 -1.953125 22.75 -1.953125 C 23.757812 -1.953125 24.726562 -2.59375 25.65625 -3.875 C 26.582031 -5.164062 27.410156 -6.820312 28.140625 -8.84375 C 28.878906 -10.863281 29.523438 -13.03125 30.078125 -15.34375 C 30.628906 -17.664062 31.050781 -19.890625 31.34375 -22.015625 C 31.632812 -24.148438 31.78125 -25.910156 31.78125 -27.296875 C 31.78125 -31.804688 31.070312 -35.289062 29.65625 -37.75 C 28.25 -40.21875 26.347656 -41.957031 23.953125 -42.96875 L 31.59375 -47.390625 C 33.40625 -46.460938 34.816406 -45.09375 35.828125 -43.28125 C 36.835938 -41.46875 37.34375 -39.320312 37.34375 -36.84375 C 37.34375 -35.445312 37.148438 -33.566406 36.765625 -31.203125 C 36.390625 -28.847656 35.84375 -26.257812 35.125 -23.4375 C 34.414062 -20.613281 33.546875 -17.789062 32.515625 -14.96875 C 31.484375 -12.144531 30.3125 -9.554688 29 -7.203125 C 27.695312 -4.847656 26.265625 -2.953125 24.703125 -1.515625 C 23.148438 -0.0859375 21.488281 0.625 19.71875 0.625 C 17.820312 0.625 16.257812 0.308594 15.03125 -0.3125 C 13.8125 -0.945312 12.832031 -1.8125 12.09375 -2.90625 C 11.363281 -4 10.742188 -5.257812 10.234375 -6.6875 C 9.734375 -8.125 9.25 -9.644531 8.78125 -11.25 Z M 8.78125 -11.25 "/></g></g></g><g fill="#0a2f24" fill-opacity="1"><g transform="translate(127.728737, 64.12316)"><g><path d="M 20.984375 0.625 C 17.691406 0.625 14.695312 -0.171875 12 -1.765625 C 9.3125 -3.367188 7.164062 -5.800781 5.5625 -9.0625 C 3.957031 -12.332031 3.15625 -16.472656 3.15625 -21.484375 C 3.15625 -26.492188 3.929688 -30.628906 5.484375 -33.890625 C 7.046875 -37.160156 9.164062 -39.59375 11.84375 -41.1875 C 14.519531 -42.789062 17.566406 -43.59375 20.984375 -43.59375 C 24.265625 -43.59375 27.253906 -42.789062 29.953125 -41.1875 C 32.648438 -39.59375 34.804688 -37.160156 36.421875 -33.890625 C 38.046875 -30.628906 38.859375 -26.492188 38.859375 -21.484375 C 38.859375 -16.472656 38.054688 -12.332031 36.453125 -9.0625 C 34.859375 -5.800781 32.710938 -3.367188 30.015625 -1.765625 C 27.316406 -0.171875 24.304688 0.625 20.984375 0.625 Z M 16.171875 -42.015625 C 14.492188 -41.597656 13.179688 -40.289062 12.234375 -38.09375 C 11.285156 -35.90625 10.753906 -33.15625 10.640625 -29.84375 C 10.535156 -26.539062 10.925781 -22.992188 11.8125 -19.203125 C 12.695312 -15.453125 13.925781 -12.125 15.5 -9.21875 C 17.082031 -6.3125 18.789062 -4.109375 20.625 -2.609375 C 22.457031 -1.117188 24.21875 -0.585938 25.90625 -1.015625 C 27.632812 -1.429688 28.972656 -2.734375 29.921875 -4.921875 C 30.867188 -7.117188 31.394531 -9.867188 31.5 -13.171875 C 31.601562 -16.484375 31.210938 -20.015625 30.328125 -23.765625 C 29.648438 -26.578125 28.785156 -29.160156 27.734375 -31.515625 C 26.679688 -33.878906 25.5 -35.90625 24.1875 -37.59375 C 22.882812 -39.28125 21.539062 -40.523438 20.15625 -41.328125 C 18.769531 -42.128906 17.441406 -42.359375 16.171875 -42.015625 Z M 16.171875 -42.015625 "/></g></g></g><g fill="#0a2f24" fill-opacity="1"><g transform="translate(175.376357, 64.12316)"><g><path d="M 0 -39.046875 C 1.5625 -39.253906 3.179688 -39.585938 4.859375 -40.046875 C 6.546875 -40.515625 8.15625 -41.066406 9.6875 -41.703125 C 11.226562 -42.335938 12.550781 -42.96875 13.65625 -43.59375 L 13.65625 -30.015625 C 13.988281 -31.484375 14.5 -33.007812 15.1875 -34.59375 C 15.882812 -36.175781 16.789062 -37.648438 17.90625 -39.015625 C 19.03125 -40.390625 20.367188 -41.492188 21.921875 -42.328125 C 23.484375 -43.171875 25.296875 -43.59375 27.359375 -43.59375 C 29.929688 -43.59375 32.082031 -43.066406 33.8125 -42.015625 L 30.453125 -33.734375 C 29.359375 -34.285156 28.222656 -34.757812 27.046875 -35.15625 C 25.867188 -35.5625 24.5625 -35.765625 23.125 -35.765625 C 21.476562 -35.765625 19.9375 -35.332031 18.5 -34.46875 C 17.070312 -33.601562 15.90625 -32.359375 15 -30.734375 C 14.101562 -29.117188 13.65625 -27.171875 13.65625 -24.890625 L 13.65625 0 L 4.484375 0 L 4.484375 -34.625 C 4.484375 -36.351562 4.125 -37.46875 3.40625 -37.96875 C 2.695312 -38.476562 1.5625 -38.734375 0 -38.734375 Z M 0 -39.046875 "/></g></g></g></g></g></svg>