<svg xmlns="http://www.w3.org/2000/svg" xmlns:xlink="http://www.w3.org/1999/xlink" width="560" zoomAndPan="magnify" viewBox="0 0 420 143.999998" height="192" preserveAspectRatio="xMidYMid meet" version="1.0"><defs><g/><clipPath id="d547c819ca"><path d="M 2 0.0390625 L 60 0.0390625 L 60 74 L 2 74 Z M 2 0.0390625 " clip-rule="nonzero"/></clipPath><clipPath id="f4e3524e55"><rect x="0" width="246" y="0" height="98"/></clipPath></defs><g transform="matrix(1, 0, 0, 1, 90, 23)"><g clip-path="url(#f4e3524e55)"><g clip-path="url(#d547c819ca)"><g fill="#0a2f24" fill-opacity="1"><g transform="translate(0.685766, 73.125012)"><g><path d="M 17.171875 0 L 1.4375 0 C 2.9375 -4.90625 4.332031 -9.488281 5.625 -13.75 C 6.925781 -18.007812 8.164062 -22.085938 9.34375 -25.984375 C 10.519531 -29.878906 11.695312 -33.773438 12.875 -37.671875 C 14.0625 -41.566406 15.289062 -45.59375 16.5625 -49.75 C 17.832031 -53.914062 19.191406 -58.40625 20.640625 -63.21875 C 21.171875 -64.90625 21.84375 -66.484375 22.65625 -67.953125 C 23.476562 -69.421875 24.523438 -70.609375 25.796875 -71.515625 C 27.078125 -72.429688 28.582031 -72.890625 30.3125 -72.890625 C 32.09375 -72.890625 33.609375 -72.429688 34.859375 -71.515625 C 36.109375 -70.609375 37.15625 -69.421875 38 -67.953125 C 38.84375 -66.484375 39.503906 -64.90625 39.984375 -63.21875 C 41.421875 -58.40625 42.773438 -53.914062 44.046875 -49.75 C 45.328125 -45.59375 46.554688 -41.566406 47.734375 -37.671875 C 48.921875 -33.773438 50.113281 -29.878906 51.3125 -25.984375 C 52.519531 -22.085938 53.757812 -18.007812 55.03125 -13.75 C 56.300781 -9.488281 57.6875 -4.90625 59.1875 0 L 48.140625 0 C 46.648438 -5 45.265625 -9.628906 43.984375 -13.890625 C 42.710938 -18.148438 41.5 -22.253906 40.34375 -26.203125 L 16.234375 -26.203125 C 16.140625 -22.203125 16.113281 -18.421875 16.15625 -14.859375 C 16.207031 -11.304688 16.328125 -8.21875 16.515625 -5.59375 C 16.710938 -2.96875 16.929688 -1.101562 17.171875 0 Z M 16.3125 -27.28125 L 39.984375 -27.28125 C 38.878906 -31.082031 37.75 -34.847656 36.59375 -38.578125 C 35.4375 -42.304688 34.242188 -46.191406 33.015625 -50.234375 C 31.785156 -54.273438 30.425781 -58.601562 28.9375 -63.21875 C 28.695312 -64.039062 28.359375 -64.691406 27.921875 -65.171875 C 27.492188 -65.648438 26.867188 -65.890625 26.046875 -65.890625 C 24.753906 -65.890625 23.601562 -65.144531 22.59375 -63.65625 C 21.582031 -62.164062 20.710938 -60.132812 19.984375 -57.5625 C 19.265625 -54.988281 18.648438 -52.050781 18.140625 -48.75 C 17.640625 -45.457031 17.242188 -41.96875 16.953125 -38.28125 C 16.671875 -34.601562 16.457031 -30.9375 16.3125 -27.28125 Z M 16.3125 -27.28125 "/></g></g></g></g><g fill="#0a2f24" fill-opacity="1"><g transform="translate(67.734887, 73.125012)"><g><path d="M 0 -44.609375 C 1.78125 -44.847656 3.628906 -45.226562 5.546875 -45.75 C 7.472656 -46.28125 9.316406 -46.90625 11.078125 -47.625 C 12.835938 -48.351562 14.34375 -49.078125 15.59375 -49.796875 L 15.59375 0 L 5.125 0 L 5.125 -39.546875 C 5.125 -41.523438 4.710938 -42.800781 3.890625 -43.375 C 3.078125 -43.945312 1.78125 -44.234375 0 -44.234375 Z M 3.828125 -58.390625 C 3.828125 -60.023438 4.414062 -61.421875 5.59375 -62.578125 C 6.769531 -63.734375 8.175781 -64.3125 9.8125 -64.3125 C 11.5 -64.3125 12.921875 -63.734375 14.078125 -62.578125 C 15.234375 -61.421875 15.8125 -60.023438 15.8125 -58.390625 C 15.8125 -56.753906 15.234375 -55.34375 14.078125 -54.15625 C 12.921875 -52.976562 11.5 -52.390625 9.8125 -52.390625 C 8.175781 -52.390625 6.769531 -52.976562 5.59375 -54.15625 C 4.414062 -55.34375 3.828125 -56.753906 3.828125 -58.390625 Z M 3.828125 -58.390625 "/></g></g></g><g fill="#0a2f24" fill-opacity="1"><g transform="translate(94.295044, 73.125012)"><g><path d="M 10.03125 -12.84375 C 9.070312 -16.070312 8.242188 -19.101562 7.546875 -21.9375 C 6.847656 -24.78125 6.195312 -27.582031 5.59375 -30.34375 C 4.988281 -33.113281 4.363281 -36.015625 3.71875 -39.046875 C 3.070312 -42.078125 2.3125 -45.421875 1.4375 -49.078125 L 11.90625 -49.078125 C 12.875 -45.035156 13.71875 -41.378906 14.4375 -38.109375 C 15.15625 -34.835938 15.847656 -31.671875 16.515625 -28.609375 C 17.191406 -25.554688 17.9375 -22.429688 18.75 -19.234375 C 19.570312 -16.035156 20.585938 -12.488281 21.796875 -8.59375 C 22.472656 -6.375 23.160156 -4.757812 23.859375 -3.75 C 24.554688 -2.738281 25.265625 -2.234375 25.984375 -2.234375 C 27.140625 -2.234375 28.242188 -2.96875 29.296875 -4.4375 C 30.359375 -5.90625 31.3125 -7.789062 32.15625 -10.09375 C 33 -12.40625 33.734375 -14.882812 34.359375 -17.53125 C 34.984375 -20.175781 35.460938 -22.710938 35.796875 -25.140625 C 36.128906 -27.578125 36.296875 -29.585938 36.296875 -31.171875 C 36.296875 -36.328125 35.488281 -40.3125 33.875 -43.125 C 32.269531 -45.9375 30.097656 -47.921875 27.359375 -49.078125 L 36.09375 -54.125 C 38.15625 -53.070312 39.765625 -51.507812 40.921875 -49.4375 C 42.078125 -47.363281 42.65625 -44.910156 42.65625 -42.078125 C 42.65625 -40.484375 42.4375 -38.335938 42 -35.640625 C 41.570312 -32.953125 40.945312 -29.992188 40.125 -26.765625 C 39.3125 -23.546875 38.3125 -20.320312 37.125 -17.09375 C 35.945312 -13.875 34.613281 -10.914062 33.125 -8.21875 C 31.632812 -5.53125 30 -3.367188 28.21875 -1.734375 C 26.4375 -0.0976562 24.535156 0.71875 22.515625 0.71875 C 20.347656 0.71875 18.566406 0.355469 17.171875 -0.359375 C 15.773438 -1.078125 14.65625 -2.0625 13.8125 -3.3125 C 12.976562 -4.570312 12.269531 -6.019531 11.6875 -7.65625 C 11.113281 -9.289062 10.5625 -11.019531 10.03125 -12.84375 Z M 10.03125 -12.84375 "/></g></g></g><g fill="#0a2f24" fill-opacity="1"><g transform="translate(144.816522, 73.125012)"><g><path d="M 23.96875 0.71875 C 20.207031 0.71875 16.785156 -0.191406 13.703125 -2.015625 C 10.628906 -3.847656 8.175781 -6.628906 6.34375 -10.359375 C 4.519531 -14.085938 3.609375 -18.8125 3.609375 -24.53125 C 3.609375 -30.257812 4.5 -34.988281 6.28125 -38.71875 C 8.0625 -42.445312 10.476562 -45.222656 13.53125 -47.046875 C 16.582031 -48.878906 20.0625 -49.796875 23.96875 -49.796875 C 27.71875 -49.796875 31.128906 -48.878906 34.203125 -47.046875 C 37.285156 -45.222656 39.753906 -42.445312 41.609375 -38.71875 C 43.460938 -34.988281 44.390625 -30.257812 44.390625 -24.53125 C 44.390625 -18.8125 43.472656 -14.085938 41.640625 -10.359375 C 39.816406 -6.628906 37.363281 -3.847656 34.28125 -2.015625 C 31.195312 -0.191406 27.757812 0.71875 23.96875 0.71875 Z M 18.46875 -48 C 16.550781 -47.507812 15.050781 -46.015625 13.96875 -43.515625 C 12.882812 -41.015625 12.28125 -37.875 12.15625 -34.09375 C 12.039062 -30.320312 12.488281 -26.269531 13.5 -21.9375 C 14.507812 -17.65625 15.914062 -13.851562 17.71875 -10.53125 C 19.519531 -7.21875 21.46875 -4.707031 23.5625 -3 C 25.65625 -1.289062 27.664062 -0.675781 29.59375 -1.15625 C 31.5625 -1.632812 33.085938 -3.125 34.171875 -5.625 C 35.253906 -8.125 35.851562 -11.265625 35.96875 -15.046875 C 36.09375 -18.828125 35.648438 -22.859375 34.640625 -27.140625 C 33.867188 -30.359375 32.878906 -33.316406 31.671875 -36.015625 C 30.472656 -38.710938 29.128906 -41.019531 27.640625 -42.9375 C 26.148438 -44.863281 24.609375 -46.285156 23.015625 -47.203125 C 21.429688 -48.117188 19.914062 -48.382812 18.46875 -48 Z M 18.46875 -48 "/></g></g></g><g fill="#0a2f24" fill-opacity="1"><g transform="translate(199.235405, 73.125012)"><g><path d="M 0 -44.609375 C 1.78125 -44.847656 3.628906 -45.226562 5.546875 -45.75 C 7.472656 -46.28125 9.316406 -46.90625 11.078125 -47.625 C 12.835938 -48.351562 14.34375 -49.078125 15.59375 -49.796875 L 15.59375 -34.28125 C 15.976562 -35.96875 16.566406 -37.710938 17.359375 -39.515625 C 18.148438 -41.316406 19.179688 -43 20.453125 -44.5625 C 21.734375 -46.125 23.265625 -47.382812 25.046875 -48.34375 C 26.828125 -49.3125 28.894531 -49.796875 31.25 -49.796875 C 34.1875 -49.796875 36.640625 -49.195312 38.609375 -48 L 34.78125 -38.546875 C 33.53125 -39.171875 32.234375 -39.707031 30.890625 -40.15625 C 29.546875 -40.613281 28.054688 -40.84375 26.421875 -40.84375 C 24.535156 -40.84375 22.773438 -40.347656 21.140625 -39.359375 C 19.503906 -38.378906 18.171875 -36.960938 17.140625 -35.109375 C 16.109375 -33.253906 15.59375 -31.03125 15.59375 -28.4375 L 15.59375 0 L 5.125 0 L 5.125 -39.546875 C 5.125 -41.523438 4.710938 -42.800781 3.890625 -43.375 C 3.078125 -43.945312 1.78125 -44.234375 0 -44.234375 Z M 0 -44.609375 "/></g></g></g></g></g></svg>